<svg viewBox="0 0 240 320" xmlns="http://www.w3.org/2000/svg">
  <circle cx="120" cy="160" r="150" fill="#f0f0f0" />
  <g transform="translate(120, 160)">
    <circle cx="0" cy="-40" r="30" fill="#ffd5b4" />
    <path d="M-30,-40 Q-30,-70 0,-70 Q30,-70 30,-40" fill="#8B6F47" />
    <ellipse cx="-10" cy="-45" rx="5" ry="7" fill="black" />
    <ellipse cx="10" cy="-45" rx="5" ry="7" fill="black" />
    <line x1="-15" y1="-55" x2="-5" y2="-55" stroke="black" stroke-width="2" />
    <line x1="5" y1="-55" x2="15" y2="-55" stroke="black" stroke-width="2" />
    <path d="M-5,-35 Q0,-30 5,-35" stroke="black" stroke-width="1" fill="none" />
    <rect x="-20" y="-10" width="40" height="50" rx="5" fill="#8B6F47" />
    <line x1="-20" y1="0" x2="-30" y2="20" stroke="#8B6F47" stroke-width="5" />
    <line x1="20" y1="0" x2="30" y2="20" stroke="#8B6F47" stroke-width="5" />
    <path d="M30,20 L40,10 L45,15 L40,20 Z" fill="#8B6F47" />
    <line x1="-10" y1="40" x2="-10" y2="70" stroke="#8B6F47" stroke-width="5" />
    <line x1="10" y1="40" x2="10" y2="70" stroke="#8B6F47" stroke-width="5" />
    <ellipse cx="-10" cy="75" rx="5" ry="3" fill="black" />
    <ellipse cx="10" cy="75" rx="5" ry="3" fill="black" />
  </g>
  <text x="120" y="50" font-size="30" text-anchor="middle">🔧</text>
  <text x="120" y="300" font-size="20" text-anchor="middle" fill="#333">ISTP</text>
</svg>