<svg xmlns="http://www.w3.org/2000/svg" viewBox="0 0 1280 720" width="1280" height="720"><defs>
	<radialGradient id="mapBg" cx="50%" cy="50%" r="70%">
		<stop offset="0%" stop-color="rgba(30,35,70,0.9)"/>
		<stop offset="100%" stop-color="rgba(8,10,25,0.98)"/>
	</radialGradient>
	<linearGradient id="grass" x1="0" y1="0" x2="0" y2="1">
		<stop offset="0%" stop-color="rgba(40,55,80,0.4)"/>
		<stop offset="100%" stop-color="rgba(20,30,50,0.6)"/>
	</linearGradient>
</defs>
<rect width="1280" height="720" fill="url(#mapBg)"/><rect width="1280" height="720" fill="url(#grass)" opacity="0.5"/><line x1="640" y1="360" x2="230.39999999999998" y2="201.60000000000002" stroke="rgba(127,90,240,0.25)" stroke-width="3" stroke-dasharray="8 8"/><line x1="640" y1="360" x2="998.4000000000001" y2="172.79999999999998" stroke="rgba(127,90,240,0.25)" stroke-width="3" stroke-dasharray="8 8"/><line x1="640" y1="360" x2="1049.6" y2="518.4" stroke="rgba(127,90,240,0.25)" stroke-width="3" stroke-dasharray="8 8"/><line x1="640" y1="360" x2="256" y2="532.8" stroke="rgba(127,90,240,0.25)" stroke-width="3" stroke-dasharray="8 8"/><line x1="640" y1="360" x2="640" y2="115.2" stroke="rgba(127,90,240,0.25)" stroke-width="3" stroke-dasharray="8 8"/><circle cx="640" cy="360" r="50" fill="rgba(127,90,240,0.15)" stroke="rgba(127,90,240,0.5)" stroke-width="2"/><circle cx="640" cy="360" r="28" fill="rgba(127,90,240,0.25)" stroke="rgba(127,90,240,0.7)" stroke-width="1.5"/><rect x="179.39999999999998" y="165.60000000000002" width="110" height="80" rx="8" fill="rgba(0,0,0,0.4)"/><rect x="175.39999999999998" y="161.60000000000002" width="110" height="80" rx="8" fill="rgba(30,35,60,0.85)" stroke="#5B7FB8" stroke-width="2.5" opacity="0.7"/><rect x="183.39999999999998" y="169.60000000000002" width="94" height="14" rx="3" fill="#5B7FB8" opacity="0.5"/><rect x="189.39999999999998" y="193.60000000000002" width="16" height="14" rx="2" fill="rgba(255,255,200,0.15)"/><rect x="189.39999999999998" y="215.60000000000002" width="16" height="14" rx="2" fill="rgba(255,255,200,0.15)"/><rect x="217.39999999999998" y="193.60000000000002" width="16" height="14" rx="2" fill="rgba(255,255,200,0.15)"/><rect x="217.39999999999998" y="215.60000000000002" width="16" height="14" rx="2" fill="rgba(255,255,200,0.15)"/><rect x="245.39999999999998" y="193.60000000000002" width="16" height="14" rx="2" fill="rgba(255,255,200,0.15)"/><rect x="245.39999999999998" y="215.60000000000002" width="16" height="14" rx="2" fill="rgba(255,255,200,0.15)"/><rect x="947.4000000000001" y="136.79999999999998" width="110" height="80" rx="8" fill="rgba(0,0,0,0.4)"/><rect x="943.4000000000001" y="132.79999999999998" width="110" height="80" rx="8" fill="rgba(30,35,60,0.85)" stroke="#3D8A9E" stroke-width="2.5" opacity="0.7"/><rect x="951.4000000000001" y="140.79999999999998" width="94" height="14" rx="3" fill="#3D8A9E" opacity="0.5"/><rect x="957.4000000000001" y="164.79999999999998" width="16" height="14" rx="2" fill="rgba(255,255,200,0.15)"/><rect x="957.4000000000001" y="186.79999999999998" width="16" height="14" rx="2" fill="rgba(255,255,200,0.15)"/><rect x="985.4000000000001" y="164.79999999999998" width="16" height="14" rx="2" fill="rgba(255,255,200,0.15)"/><rect x="985.4000000000001" y="186.79999999999998" width="16" height="14" rx="2" fill="rgba(255,255,200,0.15)"/><rect x="1013.4000000000001" y="164.79999999999998" width="16" height="14" rx="2" fill="rgba(255,255,200,0.15)"/><rect x="1013.4000000000001" y="186.79999999999998" width="16" height="14" rx="2" fill="rgba(255,255,200,0.15)"/><rect x="998.5999999999999" y="482.4" width="110" height="80" rx="8" fill="rgba(0,0,0,0.4)"/><rect x="994.5999999999999" y="478.4" width="110" height="80" rx="8" fill="rgba(30,35,60,0.85)" stroke="#B07AAC" stroke-width="2.5" opacity="0.7"/><rect x="1002.5999999999999" y="486.4" width="94" height="14" rx="3" fill="#B07AAC" opacity="0.5"/><rect x="1008.5999999999999" y="510.4" width="16" height="14" rx="2" fill="rgba(255,255,200,0.15)"/><rect x="1008.5999999999999" y="532.4" width="16" height="14" rx="2" fill="rgba(255,255,200,0.15)"/><rect x="1036.6" y="510.4" width="16" height="14" rx="2" fill="rgba(255,255,200,0.15)"/><rect x="1036.6" y="532.4" width="16" height="14" rx="2" fill="rgba(255,255,200,0.15)"/><rect x="1064.6" y="510.4" width="16" height="14" rx="2" fill="rgba(255,255,200,0.15)"/><rect x="1064.6" y="532.4" width="16" height="14" rx="2" fill="rgba(255,255,200,0.15)"/><rect x="205" y="496.79999999999995" width="110" height="80" rx="8" fill="rgba(0,0,0,0.4)"/><rect x="201" y="492.79999999999995" width="110" height="80" rx="8" fill="rgba(30,35,60,0.85)" stroke="#C09A6F" stroke-width="2.5" opacity="0.7"/><rect x="209" y="500.79999999999995" width="94" height="14" rx="3" fill="#C09A6F" opacity="0.5"/><rect x="215" y="524.8" width="16" height="14" rx="2" fill="rgba(255,255,200,0.15)"/><rect x="215" y="546.8" width="16" height="14" rx="2" fill="rgba(255,255,200,0.15)"/><rect x="243" y="524.8" width="16" height="14" rx="2" fill="rgba(255,255,200,0.15)"/><rect x="243" y="546.8" width="16" height="14" rx="2" fill="rgba(255,255,200,0.15)"/><rect x="271" y="524.8" width="16" height="14" rx="2" fill="rgba(255,255,200,0.15)"/><rect x="271" y="546.8" width="16" height="14" rx="2" fill="rgba(255,255,200,0.15)"/><rect x="589" y="79.2" width="110" height="80" rx="8" fill="rgba(0,0,0,0.4)"/><rect x="585" y="75.2" width="110" height="80" rx="8" fill="rgba(30,35,60,0.85)" stroke="#FFD700" stroke-width="2.5" opacity="0.7"/><rect x="593" y="83.2" width="94" height="14" rx="3" fill="#FFD700" opacity="0.5"/><rect x="599" y="107.2" width="16" height="14" rx="2" fill="rgba(255,255,200,0.15)"/><rect x="599" y="129.2" width="16" height="14" rx="2" fill="rgba(255,255,200,0.15)"/><rect x="627" y="107.2" width="16" height="14" rx="2" fill="rgba(255,255,200,0.15)"/><rect x="627" y="129.2" width="16" height="14" rx="2" fill="rgba(255,255,200,0.15)"/><rect x="655" y="107.2" width="16" height="14" rx="2" fill="rgba(255,255,200,0.15)"/><rect x="655" y="129.2" width="16" height="14" rx="2" fill="rgba(255,255,200,0.15)"/><circle cx="413.3077277677636" cy="188.80880364627055" r="14.622960570558423" fill="rgba(44,90,70,0.4)"/><circle cx="411.3077277677636" cy="186.80880364627055" r="10.236072399390896" fill="rgba(60,120,90,0.35)"/><circle cx="414.9594118143243" cy="168.81437309496775" r="12.981544318134684" fill="rgba(44,90,70,0.4)"/><circle cx="412.9594118143243" cy="166.81437309496775" r="9.087081022694278" fill="rgba(60,120,90,0.35)"/><circle cx="786.5565494385346" cy="672.6617148670656" r="12.69440579632968" fill="rgba(44,90,70,0.4)"/><circle cx="784.5565494385346" cy="670.6617148670656" r="8.886084057430775" fill="rgba(60,120,90,0.35)"/><circle cx="6.903839114542976" cy="465.96667281629834" r="13.489898922615637" fill="rgba(44,90,70,0.4)"/><circle cx="4.903839114542976" cy="463.96667281629834" r="9.442929245830946" fill="rgba(60,120,90,0.35)"/><circle cx="737.7874759294966" cy="449.524498195166" r="9.782641411657744" fill="rgba(44,90,70,0.4)"/><circle cx="735.7874759294966" cy="447.524498195166" r="6.847848988160421" fill="rgba(60,120,90,0.35)"/><circle cx="411.7328264246382" cy="210.91475496576854" r="11.774827720492532" fill="rgba(44,90,70,0.4)"/><circle cx="409.7328264246382" cy="208.91475496576854" r="8.242379404344772" fill="rgba(60,120,90,0.35)"/><circle cx="30.064582838706944" cy="563.420660460098" r="10.724572421388967" fill="rgba(44,90,70,0.4)"/><circle cx="28.064582838706944" cy="561.420660460098" r="7.507200694972276" fill="rgba(60,120,90,0.35)"/><circle cx="218.7886048382095" cy="66.83886769546143" r="8.918579698036694" fill="rgba(44,90,70,0.4)"/><circle cx="216.7886048382095" cy="64.83886769546143" r="6.243005788625686" fill="rgba(60,120,90,0.35)"/><circle cx="7.554740909279669" cy="675.8665442633752" r="12.900032284157366" fill="rgba(44,90,70,0.4)"/><circle cx="5.554740909279669" cy="673.8665442633752" r="9.030022598910156" fill="rgba(60,120,90,0.35)"/><circle cx="517.3670961881835" cy="472.045870047084" r="11.52337002918281" fill="rgba(44,90,70,0.4)"/><circle cx="515.3670961881835" cy="470.045870047084" r="8.066359020427967" fill="rgba(60,120,90,0.35)"/><circle cx="1173.6128240328342" cy="475.12375853728685" r="9.159025431219035" fill="rgba(44,90,70,0.4)"/><circle cx="1171.6128240328342" cy="473.12375853728685" r="6.411317801853325" fill="rgba(60,120,90,0.35)"/><circle cx="268.46454632862685" cy="426.2070896226014" r="11.147408963715382" fill="rgba(44,90,70,0.4)"/><circle cx="266.46454632862685" cy="424.2070896226014" r="7.803186274600766" fill="rgba(60,120,90,0.35)"/><circle cx="267.8134156520541" cy="703.0973843033879" r="12.68221903065323" fill="rgba(44,90,70,0.4)"/><circle cx="265.8134156520541" cy="701.0973843033879" r="8.87755332145726" fill="rgba(60,120,90,0.35)"/><circle cx="1068.670959970295" cy="712.6091197471177" r="13.011036398360057" fill="rgba(44,90,70,0.4)"/><circle cx="1066.670959970295" cy="710.6091197471177" r="9.10772547885204" fill="rgba(60,120,90,0.35)"/><circle cx="801.955871955471" cy="465.7731058382304" r="9.724245549051206" fill="rgba(44,90,70,0.4)"/><circle cx="799.955871955471" cy="463.7731058382304" r="6.8069718843358435" fill="rgba(60,120,90,0.35)"/><circle cx="1102.7750020393985" cy="398.6510183283366" r="11.822852374903324" fill="rgba(44,90,70,0.4)"/><circle cx="1100.7750020393985" cy="396.6510183283366" r="8.275996662432327" fill="rgba(60,120,90,0.35)"/><circle cx="400.1155092195214" cy="618.2337286967011" r="16.226658109681054" fill="rgba(44,90,70,0.4)"/><circle cx="398.1155092195214" cy="616.2337286967011" r="11.358660676776736" fill="rgba(60,120,90,0.35)"/><circle cx="504.70096611636734" cy="234.16834842142106" r="11.5997664945199" fill="rgba(44,90,70,0.4)"/><circle cx="502.70096611636734" cy="232.16834842142106" r="8.11983654616393" fill="rgba(60,120,90,0.35)"/><circle cx="421.52755756933595" cy="353.6868955351817" r="9.639617682266802" fill="rgba(44,90,70,0.4)"/><circle cx="419.52755756933595" cy="351.6868955351817" r="6.747732377586761" fill="rgba(60,120,90,0.35)"/><circle cx="961.3438801473677" cy="31.5450096277264" r="12.050863089063608" fill="rgba(44,90,70,0.4)"/><circle cx="959.3438801473677" cy="29.5450096277264" r="8.435604162344525" fill="rgba(60,120,90,0.35)"/><rect width="1280" height="80" fill="rgba(0,0,0,0.4)"/></svg>